<svg width="20" height="21" viewBox="0 0 20 21" fill="none" xmlns="http://www.w3.org/2000/svg">
<path d="M17.5 9.60509C17.5029 10.705 17.2459 11.79 16.75 12.7718C16.162 13.9482 15.2581 14.9377 14.1395 15.6295C13.021 16.3212 11.7319 16.6879 10.4167 16.6884C9.31678 16.6913 8.23176 16.4343 7.25 15.9384L2.5 17.5218L4.08333 12.7718C3.58744 11.79 3.33047 10.705 3.33333 9.60509C3.33384 8.28988 3.70051 7.00079 4.39227 5.88221C5.08402 4.76363 6.07355 3.85972 7.25 3.27175C8.23176 2.77586 9.31678 2.51888 10.4167 2.52175H10.8333C12.5703 2.61758 14.2109 3.35072 15.441 4.5808C16.671 5.81088 17.4042 7.45146 17.5 9.18842V9.60509Z" stroke="#212529" stroke-width="2" stroke-linecap="round" stroke-linejoin="round"/>
<path d="M12.3333 6.85506H10.6667M10.6667 6.85506H10.25C9.55964 6.85506 9 7.4147 9 8.10506C9 8.79542 9.55964 9.35506 10.25 9.35506H11.0833C11.7737 9.35506 12.3333 9.91471 12.3333 10.6051C12.3333 11.2954 11.7737 11.8551 11.0833 11.8551H10.6667M10.6667 6.85506V6.02173M10.6667 11.8551H9M10.6667 11.8551V12.6884" stroke="#212529" stroke-width="2" stroke-linecap="round" stroke-linejoin="round"/>
</svg>
                           
