<svg width="32" height="33" viewBox="0 0 32 33" fill="none" xmlns="http://www.w3.org/2000/svg">
<path fill-rule="evenodd" clip-rule="evenodd" d="M30 15.3919C30 6.22042 26.7692 2.01343 16 2.01343C5.23077 2.01343 2 6.22042 2 15.3919C2 21.9189 3.63629 25.9316 8.46154 27.7029V30.7909C8.46154 31.9275 9.88769 32.4467 10.6264 31.579L13.1164 28.6545C14.0113 28.7319 14.9713 28.7703 16 28.7703C26.7692 28.7703 30 24.5633 30 15.3919ZM13.7113 26.545C14.4251 26.6017 15.1872 26.6298 16 26.6298C25.1124 26.6298 27.8462 23.0959 27.8462 15.3919C27.8462 7.68785 25.1124 4.15398 16 4.15398C6.88757 4.15398 4.15385 7.68785 4.15385 15.3919C4.15385 20.8373 5.51965 24.1993 9.53846 25.7026V30.2773C9.53846 30.6761 10.0389 30.8583 10.2981 30.5538L13.7113 26.545Z" fill="#BFC8D0"/>
<path d="M16 25.8682C15.1766 25.8682 14.4047 25.8396 13.6815 25.782L10.224 29.8584C9.96145 30.168 9.45455 29.9828 9.45455 29.5772V24.9254C5.38354 23.3968 4 19.9781 4 14.4408C4 6.60689 6.76923 3.01343 16 3.01343C25.2308 3.01343 28 6.60689 28 14.4408C28 22.2747 25.2308 25.8682 16 25.8682Z" fill="#9179EE"/>
<path fill-rule="evenodd" clip-rule="evenodd" d="M30 14.3919C30 5.22042 26.7692 1.01343 16 1.01343C5.23077 1.01343 2 5.22042 2 14.3919C2 20.9189 3.63629 24.9316 8.46154 26.7029V29.7909C8.46154 30.9275 9.88769 31.4467 10.6264 30.579L13.1164 27.6545C14.0113 27.7319 14.9713 27.7703 16 27.7703C26.7692 27.7703 30 23.5633 30 14.3919ZM13.7113 25.545C14.4251 25.6017 15.1872 25.6298 16 25.6298C25.1124 25.6298 27.8462 22.0959 27.8462 14.3919C27.8462 6.68785 25.1124 3.15398 16 3.15398C6.88757 3.15398 4.15385 6.68785 4.15385 14.3919C4.15385 19.8373 5.51965 23.1993 9.53846 24.7026V29.2773C9.53846 29.6761 10.0389 29.8583 10.2981 29.5538L13.7113 25.545Z" fill="white"/>
<path d="M11.5432 12.1479L11.5026 12.1704L11.4668 12.2001C11.1902 12.4288 10.7756 13.0569 11.1388 13.8331C11.4414 14.4799 12.1157 15.8008 13.3005 16.7961C14.4592 17.7694 15.6965 18.293 16.5092 18.4644L16.5603 18.4751H16.6069C16.6091 18.4754 16.614 18.4759 16.6219 18.477C16.6412 18.4797 16.6645 18.4837 16.7012 18.4901L16.7874 17.9976L16.7012 18.4901C16.7075 18.4912 16.714 18.4924 16.7208 18.4936C16.9709 18.5378 17.5704 18.6438 18.0729 18.1432C18.3954 17.8217 18.6898 17.4866 18.8165 17.3359C18.9055 17.2547 19.1956 17.0865 19.5626 17.2106C20.2576 17.4455 21.0839 17.9755 21.4833 18.2443C21.7925 18.4524 22.4924 18.9538 22.8079 19.1817L22.8082 19.1818C22.8344 19.2007 22.8959 19.2627 22.9291 19.3488C22.9557 19.4176 22.97 19.5123 22.9061 19.6491C22.7875 19.9029 22.4266 20.3874 21.9378 20.8112C21.4401 21.2429 20.9222 21.5134 20.5072 21.5134C20.5087 21.5134 20.5072 21.5132 20.5025 21.5126C20.484 21.5101 20.4153 21.5008 20.2792 21.4703C20.1262 21.4359 19.9195 21.382 19.6669 21.306C19.1622 21.1542 18.485 20.9174 17.7029 20.581C16.1375 19.9075 14.1668 18.8411 12.3218 17.2707C11.1613 16.2829 10.0664 14.917 9.2138 13.6385C8.35407 12.3493 7.77896 11.2066 7.62244 10.6789L7.61148 10.642L7.595 10.6072C7.55603 10.5248 7.50112 10.3489 7.50002 10.1495C7.49895 9.95676 7.54725 9.77266 7.67465 9.61999C8.09467 9.11665 8.53938 8.62202 9.52049 8.14738C9.61188 8.10317 9.75504 8.06418 9.89575 8.06192C10.04 8.0596 10.1152 8.09543 10.1452 8.12178C10.5206 8.45094 11.1025 9.032 11.4945 9.52855C11.6971 9.78507 11.9418 10.1109 12.1458 10.3941C12.2478 10.5357 12.3377 10.6641 12.4062 10.7661C12.4405 10.8173 12.4679 10.8596 12.4881 10.8923C12.5019 10.9146 12.5093 10.9277 12.5124 10.9333C12.5141 10.939 12.5218 10.9633 12.5286 11.0074C12.5371 11.0628 12.5411 11.1311 12.5354 11.2025C12.5235 11.3486 12.4755 11.4658 12.3892 11.5449C12.0962 11.8132 11.699 12.0616 11.5432 12.1479ZM16.2766 6.52956C16.2769 6.52928 16.2772 6.529 16.2775 6.5287C16.2847 6.52195 16.2994 6.51343 16.3226 6.51343C20.3145 6.51343 23.4984 9.55127 23.5 13.2365C23.4994 13.2373 23.4983 13.2386 23.4967 13.2401C23.4895 13.2468 23.4747 13.2554 23.4516 13.2554C23.4285 13.2554 23.4137 13.2468 23.4065 13.2401C23.4049 13.2386 23.4039 13.2373 23.4032 13.2365C23.4016 9.51289 20.2032 6.54569 16.3226 6.54569C16.2994 6.54569 16.2847 6.53716 16.2775 6.53041C16.2772 6.53012 16.2769 6.52983 16.2766 6.52956ZM16.2775 10.6594C16.2772 10.6592 16.2769 10.6589 16.2766 10.6586C16.2769 10.6583 16.2772 10.658 16.2775 10.6577C16.2847 10.651 16.2994 10.6425 16.3226 10.6425C17.8916 10.6425 19.1113 11.8316 19.1129 13.2365C19.1123 13.2373 19.1112 13.2386 19.1096 13.2401C19.1024 13.2468 19.0877 13.2554 19.0645 13.2554C19.0414 13.2554 19.0266 13.2468 19.0194 13.2401C19.0178 13.2386 19.0168 13.2373 19.0161 13.2365C19.0145 11.7933 17.7803 10.6747 16.3226 10.6747C16.2994 10.6747 16.2847 10.6662 16.2775 10.6594ZM16.2775 8.59493C16.2772 8.59463 16.2769 8.59435 16.2766 8.59407C16.2769 8.5938 16.2772 8.59351 16.2775 8.59321C16.2847 8.58647 16.2994 8.57794 16.3226 8.57794C19.1031 8.57794 21.3048 10.6915 21.3065 13.2365C21.3058 13.2373 21.3048 13.2386 21.3032 13.2401C21.296 13.2468 21.2812 13.2554 21.2581 13.2554C21.2349 13.2554 21.2201 13.2468 21.213 13.2401C21.2114 13.2386 21.2103 13.2373 21.2097 13.2365C21.2081 10.6531 18.9917 8.6102 16.3226 8.6102C16.2994 8.6102 16.2847 8.60168 16.2775 8.59493Z" fill="white" stroke="white" stroke-linecap="round"/>
</svg>
